<?xml version="1.0" standalone="no"?>
<!DOCTYPE svg PUBLIC "-//W3C//DTD SVG 20010904//EN"
 "http://www.w3.org/TR/2001/REC-SVG-20010904/DTD/svg10.dtd">
<svg version="1.0" xmlns="http://www.w3.org/2000/svg"
 width="400.000000pt" height="400.000000pt" viewBox="0 0 400.000000 400.000000"
 preserveAspectRatio="xMidYMid meet">
<metadata>
Created by potrace 1.11, written by Peter Selinger 2001-2013
</metadata>
<g transform="translate(0.000000,400.000000) scale(0.100000,-0.100000)"
fill="#000000" stroke="none">
<path d="M1800 3881 c0 -9 -9 -12 -30 -9 -16 3 -30 1 -30 -3 0 -4 -8 -8 -17
-8 -10 0 -36 -4 -58 -10 -22 -5 -54 -12 -72 -16 -18 -3 -44 -10 -58 -15 -14
-5 -40 -12 -58 -15 -18 -4 -42 -13 -54 -21 -12 -8 -30 -15 -40 -17 -10 -1 -51
-19 -91 -39 -40 -21 -80 -35 -90 -32 -11 4 -13 3 -5 -3 9 -6 -5 -19 -45 -43
-139 -83 -351 -273 -414 -371 -9 -14 -23 -33 -30 -40 -7 -8 -21 -28 -30 -44
-10 -17 -22 -29 -27 -28 -6 2 -7 -5 -4 -14 4 -11 3 -14 -6 -9 -6 4 -10 4 -9
-1 3 -12 -13 -56 -27 -73 -16 -19 -91 -192 -87 -202 1 -5 -2 -8 -6 -8 -4 0 -8
-8 -9 -17 -1 -18 -39 -166 -50 -193 -3 -8 -7 -33 -9 -55 -7 -68 -10 -405 -4
-405 6 0 11 -46 14 -117 1 -11 4 -19 9 -16 4 2 7 -2 8 -9 0 -7 2 -20 4 -28 2
-8 6 -24 9 -36 17 -79 51 -169 92 -246 9 -16 12 -28 9 -28 -4 0 3 -12 14 -26
12 -15 21 -31 21 -36 0 -5 11 -24 25 -42 14 -18 25 -36 25 -40 0 -4 5 -12 10
-19 6 -7 31 -40 56 -74 25 -35 51 -63 56 -63 6 0 7 -8 4 -17 -4 -10 -4 -15 -1
-11 11 11 44 -24 37 -40 -3 -10 -1 -13 6 -8 13 8 102 -74 102 -94 0 -7 3 -10
6 -7 10 10 44 -12 44 -28 0 -8 6 -14 13 -13 6 2 11 -3 9 -10 -1 -8 2 -11 7 -7
6 3 34 -11 62 -32 60 -43 100 -67 147 -88 20 -10 30 -20 26 -27 -4 -7 -3 -8 4
-4 6 4 19 2 29 -3 10 -5 33 -16 51 -23 17 -7 32 -17 32 -21 0 -5 4 -6 9 -3 11
7 42 -4 37 -13 -2 -3 7 -7 20 -7 37 -3 114 -27 114 -37 0 -4 5 -5 10 -2 6 3
10 1 10 -4 0 -6 5 -11 11 -11 5 0 7 4 4 10 -3 6 1 7 10 4 9 -4 13 -13 11 -23
-3 -9 -13 -52 -22 -96 -9 -44 -19 -82 -22 -85 -4 -3 -8 -20 -10 -38 -1 -18 -9
-46 -17 -62 -8 -16 -15 -36 -15 -45 0 -9 -4 -13 -10 -10 -5 3 -7 0 -4 -8 2 -7
-1 -27 -7 -43 -7 -16 -13 -35 -15 -43 -7 -34 -27 -70 -37 -64 -5 3 -7 1 -4 -4
10 -16 -32 -105 -45 -97 -7 4 -8 2 -4 -4 6 -11 -19 -55 -52 -90 -30 -33 0 -38
86 -13 17 5 32 8 32 5 0 -2 24 11 53 30 28 18 58 31 65 29 7 -3 11 1 10 9 -2
8 6 13 20 12 14 0 19 3 13 9 -10 10 38 57 58 57 6 0 11 5 11 10 0 6 12 23 28
38 48 48 122 140 122 151 0 10 14 15 33 12 5 -1 6 3 3 8 -3 5 5 25 19 45 14
20 25 41 25 46 0 9 14 14 31 12 4 -1 5 7 2 16 -2 10 5 26 16 36 12 11 21 25
21 33 0 15 11 17 28 3 9 -7 9 -7 2 2 -14 17 -12 31 3 22 8 -5 8 -3 -2 9 -11
14 -11 17 0 21 43 13 44 14 26 15 -10 1 -16 5 -12 11 3 5 13 6 23 3 14 -6 15
-4 4 9 -16 20 -8 25 45 29 25 2 48 -3 60 -11 17 -14 17 -14 3 4 -14 18 -13 19
7 14 13 -4 26 -2 29 3 3 6 12 5 22 -3 12 -10 14 -10 8 0 -5 8 0 12 13 13 29 2
34 3 49 12 6 5 16 6 21 2 5 -3 12 -1 15 4 4 5 14 8 24 6 9 -1 22 1 27 5 6 4
24 11 40 15 43 12 46 12 93 30 24 8 48 12 54 9 6 -4 8 -2 4 4 -6 10 30 28 47
24 4 -1 7 3 7 8 0 6 17 8 43 5 27 -3 37 -2 28 4 -8 5 -21 7 -29 3 -11 -4 -13
-1 -8 7 5 7 17 11 27 8 10 -3 17 -1 16 3 -3 13 114 81 126 73 5 -3 8 -2 5 3
-7 11 17 35 26 27 3 -4 6 0 6 7 0 7 3 11 6 7 3 -3 19 8 36 24 17 16 35 26 41
22 6 -4 7 -1 3 6 -5 8 0 14 13 18 12 3 21 12 21 19 0 17 16 18 24 2 3 -7 4 -4
3 7 -1 12 3 19 11 17 6 -1 11 2 10 7 -4 11 64 77 75 73 5 -1 6 2 2 8 -3 5 1
13 9 16 9 3 14 10 11 15 -7 11 30 30 40 21 5 -4 5 -2 1 5 -8 14 22 65 33 58 4
-2 8 2 8 9 0 7 10 27 23 44 19 26 26 29 38 19 13 -10 14 -9 2 9 -12 19 -11 24
3 38 8 9 19 25 22 36 3 11 11 20 16 20 5 0 9 9 9 21 0 11 4 17 10 14 6 -3 7 1
4 9 -3 9 -1 16 5 16 6 0 10 6 9 13 -2 6 2 11 9 10 7 -2 10 3 7 11 -3 8 -1 17
5 20 6 4 7 14 4 23 -5 12 -2 15 10 10 12 -4 14 -2 10 10 -5 12 -3 14 8 8 12
-7 12 -6 1 7 -11 13 -8 21 13 46 14 16 25 33 25 38 0 4 -7 -1 -16 -12 -15 -19
-16 -19 -9 1 4 11 10 28 12 37 3 10 8 16 12 14 3 -2 7 10 7 27 1 18 3 39 6 47
16 54 19 58 49 55 16 -1 27 0 24 4 -4 3 -16 6 -28 6 -20 0 -22 4 -18 59 4 80
6 87 17 84 5 -2 7 -7 6 -13 -2 -5 0 -6 4 -2 13 12 13 37 1 34 -7 -1 -13 10
-15 26 -2 15 2 27 8 27 6 0 8 -5 4 -12 -5 -9 -2 -9 9 1 18 14 22 22 10 20 -26
-4 -30 4 -27 51 1 27 6 55 10 61 5 8 3 9 -6 4 -10 -6 -12 -4 -7 7 3 9 2 32 -3
51 -5 23 -4 39 3 46 8 8 8 11 -1 11 -7 0 -12 5 -12 11 0 5 4 8 8 5 5 -3 9 1 9
9 0 8 -4 12 -8 10 -10 -7 -15 14 -14 60 0 22 -4 43 -10 48 -6 4 -4 11 5 17 13
8 13 10 -2 10 -15 0 -31 49 -32 100 0 8 -7 21 -14 29 -8 8 -12 25 -9 37 2 14
0 21 -6 17 -6 -4 -8 2 -5 15 4 12 3 20 -2 17 -11 -7 -43 64 -36 81 3 8 2 12
-4 9 -5 -3 -14 4 -20 15 -6 11 -8 20 -5 20 3 0 -3 10 -14 21 -11 12 -23 35
-26 50 -4 16 -11 29 -16 29 -5 0 -17 16 -26 35 -9 19 -20 35 -25 35 -4 0 -8 7
-8 15 0 8 -4 15 -10 15 -5 0 -10 7 -10 16 0 9 5 12 12 8 7 -4 8 -3 4 5 -4 6
-12 9 -17 5 -6 -3 -18 3 -27 14 -9 11 -25 29 -34 40 -9 11 -14 23 -11 26 4 3
1 6 -6 6 -7 0 -9 5 -6 10 4 6 3 10 -2 9 -18 -3 -33 2 -33 11 0 12 -36 50 -48
50 -4 0 -13 9 -20 20 -8 13 -8 20 -1 20 5 0 7 5 3 11 -5 8 -9 8 -14 -1 -10
-15 -52 18 -43 34 3 6 3 8 -2 4 -6 -6 -62 30 -112 72 -7 5 -17 10 -22 10 -6 0
-14 6 -18 13 -13 20 -180 105 -290 147 -18 7 -33 17 -33 22 0 5 -4 7 -9 4 -5
-3 -32 1 -60 10 -29 8 -64 17 -79 19 -15 1 -54 10 -87 18 -33 9 -78 17 -100
18 -22 2 -45 7 -52 11 -6 5 -14 5 -17 -1 -4 -5 -18 -6 -34 -2 -15 5 -36 5 -47
1 -11 -4 -30 -4 -41 1 -12 4 -24 6 -26 4 -9 -9 -88 -11 -88 -2 0 5 -7 4 -16
-4 -13 -10 -17 -10 -25 2 -7 11 -9 11 -9 0z"/>
<path d="M2755 3711 c-3 -5 -2 -12 3 -15 5 -3 9 1 9 9 0 17 -3 19 -12 6z"/>
<path d="M2926 3578 c3 -5 10 -6 15 -3 13 9 11 12 -6 12 -8 0 -12 -4 -9 -9z"/>
<path d="M3155 3480 c3 -5 8 -10 11 -10 2 0 4 5 4 10 0 6 -5 10 -11 10 -5 0
-7 -4 -4 -10z"/>
<path d="M3176 3342 c-2 -4 -1 -14 4 -22 7 -11 9 -9 7 8 -1 24 -3 26 -11 14z"/>
<path d="M3260 3246 c0 -2 8 -10 18 -17 15 -13 16 -12 3 4 -13 16 -21 21 -21
13z"/>
<path d="M3310 3136 c0 -2 8 -10 18 -17 15 -13 16 -12 3 4 -13 16 -21 21 -21
13z"/>
<path d="M3435 3120 c-3 -5 -1 -10 4 -10 6 0 11 5 11 10 0 6 -2 10 -4 10 -3 0
-8 -4 -11 -10z"/>
<path d="M3430 2926 c0 -2 7 -7 16 -10 8 -3 12 -2 9 4 -6 10 -25 14 -25 6z"/>
<path d="M3465 2840 c-3 -6 1 -7 9 -4 18 7 21 14 7 14 -6 0 -13 -4 -16 -10z"/>
<path d="M3535 2620 c-3 -5 -1 -10 4 -10 6 0 11 5 11 10 0 6 -2 10 -4 10 -3 0
-8 -4 -11 -10z"/>
<path d="M3510 2346 c0 -2 7 -7 16 -10 8 -3 12 -2 9 4 -6 10 -25 14 -25 6z"/>
<path d="M3555 2281 c-3 -5 -2 -12 3 -15 5 -3 9 1 9 9 0 17 -3 19 -12 6z"/>
<path d="M3506 2178 c3 -5 10 -6 15 -3 13 9 11 12 -6 12 -8 0 -12 -4 -9 -9z"/>
<path d="M3494 2040 c0 -13 4 -16 10 -10 7 7 7 13 0 20 -6 6 -10 3 -10 -10z"/>
<path d="M3465 1999 c-3 -4 2 -6 10 -5 21 3 28 13 10 13 -9 0 -18 -4 -20 -8z"/>
<path d="M3470 1920 c0 -5 5 -10 11 -10 5 0 7 5 4 10 -3 6 -8 10 -11 10 -2 0
-4 -4 -4 -10z"/>
<path d="M3476 1887 c3 -10 9 -15 12 -12 3 3 0 11 -7 18 -10 9 -11 8 -5 -6z"/>
<path d="M3433 1825 c0 -8 4 -12 9 -9 5 3 6 10 3 15 -9 13 -12 11 -12 -6z"/>
<path d="M3393 1745 c0 -8 4 -12 9 -9 5 3 6 10 3 15 -9 13 -12 11 -12 -6z"/>
<path d="M3376 1682 c-3 -5 1 -9 9 -9 8 0 12 4 9 9 -3 4 -7 8 -9 8 -2 0 -6 -4
-9 -8z"/>
<path d="M3346 1598 c3 -5 10 -6 15 -3 13 9 11 12 -6 12 -8 0 -12 -4 -9 -9z"/>
<path d="M3294 1578 c-4 -7 -4 -10 1 -6 4 4 15 2 24 -5 14 -11 14 -10 2 6 -16
20 -18 21 -27 5z"/>
<path d="M3286 1518 c3 -5 10 -6 15 -3 13 9 11 12 -6 12 -8 0 -12 -4 -9 -9z"/>
<path d="M3195 1449 c-4 -6 -5 -12 -2 -15 2 -3 7 2 10 11 7 17 1 20 -8 4z"/>
<path d="M753 1405 c0 -8 4 -12 9 -9 5 3 6 10 3 15 -9 13 -12 11 -12 -6z"/>
<path d="M3150 1378 c0 -4 4 -8 9 -8 6 0 12 4 15 8 3 5 -1 9 -9 9 -8 0 -15 -4
-15 -9z"/>
<path d="M3130 1361 c0 -6 4 -13 10 -16 6 -3 7 1 4 9 -7 18 -14 21 -14 7z"/>
<path d="M3095 1320 c-2 -3 5 -6 15 -7 11 -1 22 2 24 5 3 4 -4 8 -15 8 -11 0
-22 -3 -24 -6z"/>
<path d="M3073 1273 c0 -9 4 -10 14 -2 7 6 13 12 13 14 0 1 -6 2 -13 2 -8 0
-14 -6 -14 -14z"/>
<path d="M3039 1253 c-13 -16 -12 -17 4 -4 16 13 21 21 13 21 -2 0 -10 -8 -17
-17z"/>
<path d="M3035 1219 c-3 -4 2 -6 10 -5 21 3 28 13 10 13 -9 0 -18 -4 -20 -8z"/>
<path d="M3015 1181 c-3 -5 -2 -12 3 -15 5 -3 9 1 9 9 0 17 -3 19 -12 6z"/>
<path d="M2955 1151 c-3 -5 -2 -12 3 -15 5 -3 9 1 9 9 0 17 -3 19 -12 6z"/>
<path d="M2856 1122 c-3 -5 1 -9 9 -9 8 0 12 4 9 9 -3 4 -7 8 -9 8 -2 0 -6 -4
-9 -8z"/>
<path d="M2791 1053 c7 -12 15 -20 18 -17 3 2 -3 12 -13 22 -17 16 -18 16 -5
-5z"/>
<path d="M2839 1033 c-13 -16 -12 -17 4 -4 16 13 21 21 13 21 -2 0 -10 -8 -17
-17z"/>
<path d="M2775 1031 c-3 -5 -2 -12 3 -15 5 -3 9 1 9 9 0 17 -3 19 -12 6z"/>
<path d="M1306 982 c-3 -5 1 -9 9 -9 8 0 12 4 9 9 -3 4 -7 8 -9 8 -2 0 -6 -4
-9 -8z"/>
<path d="M2599 988 c-5 -16 -4 -46 2 -42 4 2 7 13 6 24 -1 17 -5 26 -8 18z"/>
<path d="M2666 979 c4 -8 30 -6 38 2 3 3 -5 5 -19 5 -13 0 -22 -3 -19 -7z"/>
<path d="M1356 938 c3 -4 11 -5 19 -1 21 7 19 12 -4 10 -11 0 -18 -5 -15 -9z"/>
<path d="M2495 941 c-3 -5 -2 -12 3 -15 5 -3 9 1 9 9 0 17 -3 19 -12 6z"/>
<path d="M2446 918 c3 -5 10 -6 15 -3 13 9 11 12 -6 12 -8 0 -12 -4 -9 -9z"/>
<path d="M1495 900 c3 -5 8 -10 11 -10 2 0 4 5 4 10 0 6 -5 10 -11 10 -5 0 -7
-4 -4 -10z"/>
<path d="M2427 899 c7 -7 15 -10 18 -7 3 3 -2 9 -12 12 -14 6 -15 5 -6 -5z"/>
<path d="M2535 901 c-3 -5 -2 -12 3 -15 5 -3 9 1 9 9 0 17 -3 19 -12 6z"/>
<path d="M2376 887 c3 -10 9 -15 12 -12 3 3 0 11 -7 18 -10 9 -11 8 -5 -6z"/>
<path d="M1570 881 c0 -6 4 -13 10 -16 6 -3 7 1 4 9 -7 18 -14 21 -14 7z"/>
<path d="M1535 860 c3 -5 8 -10 11 -10 2 0 4 5 4 10 0 6 -5 10 -11 10 -5 0 -7
-4 -4 -10z"/>
<path d="M2330 859 c0 -5 5 -7 10 -4 6 3 10 8 10 11 0 2 -4 4 -10 4 -5 0 -10
-5 -10 -11z"/>
<path d="M2077 849 c7 -7 15 -10 18 -7 3 3 -2 9 -12 12 -14 6 -15 5 -6 -5z"/>
<path d="M2113 827 c0 -8 6 -14 14 -14 9 0 10 4 2 14 -6 7 -12 13 -14 13 -1 0
-2 -6 -2 -13z"/>
<path d="M2076 822 c-3 -5 1 -9 9 -9 8 0 12 4 9 9 -3 4 -7 8 -9 8 -2 0 -6 -4
-9 -8z"/>
<path d="M2069 777 c6 -8 7 -18 3 -22 -4 -5 -1 -5 6 -1 10 6 10 11 1 22 -6 8
-14 14 -16 14 -3 0 0 -6 6 -13z"/>
<path d="M2075 689 c-4 -6 -5 -12 -2 -15 2 -3 7 2 10 11 7 17 1 20 -8 4z"/>
<path d="M1960 685 c0 -2 6 -8 13 -14 10 -8 14 -7 14 2 0 8 -6 14 -14 14 -7 0
-13 -1 -13 -2z"/>
<path d="M2020 606 c0 -2 8 -10 18 -17 15 -13 16 -12 3 4 -13 16 -21 21 -21
13z"/>
<path d="M1896 581 c-4 -5 3 -7 14 -4 23 6 26 13 6 13 -8 0 -17 -4 -20 -9z"/>
<path d="M1933 535 c0 -8 4 -12 9 -9 5 3 6 10 3 15 -9 13 -12 11 -12 -6z"/>
<path d="M1895 520 c2 -27 10 -33 12 -10 1 11 -2 22 -6 24 -4 3 -7 -4 -6 -14z"/>
<path d="M1831 507 c-8 -10 -7 -14 2 -14 8 0 14 6 14 14 0 7 -1 13 -2 13 -2 0
-8 -6 -14 -13z"/>
<path d="M1796 454 c-23 -23 -20 -30 4 -9 11 10 20 20 20 22 0 7 -9 2 -24 -13z"/>
<path d="M1833 454 c0 -9 4 -11 12 -4 7 5 14 9 16 7 2 -1 3 0 1 2 -7 11 -29 7
-29 -5z"/>
<path d="M1766 405 c-11 -8 -15 -15 -9 -15 6 0 16 7 23 15 16 19 11 19 -14 0z"/>
<path d="M1720 340 c-9 -6 -10 -10 -3 -10 6 0 15 5 18 10 8 12 4 12 -15 0z"/>
<path d="M1656 313 c-6 -14 -5 -15 5 -6 7 7 10 15 7 18 -3 3 -9 -2 -12 -12z"/>
<path d="M1575 231 c-3 -5 -2 -12 3 -15 5 -3 9 1 9 9 0 17 -3 19 -12 6z"/>
<path d="M1616 221 c-3 -5 2 -15 12 -22 15 -12 16 -12 5 2 -7 9 -10 19 -6 22
3 4 4 7 0 7 -3 0 -8 -4 -11 -9z"/>
</g>
</svg>
